<svg version="1.1" xmlns="http://www.w3.org/2000/svg" xmlns:xlink="http://www.w3.org/1999/xlink" width="512px" height="512px" viewBox="0,0,256,256"><g fill="#8f96a3" fill-rule="nonzero" stroke="none" stroke-width="1" stroke-linecap="butt" stroke-linejoin="miter" stroke-miterlimit="10" stroke-dasharray="" stroke-dashoffset="0" font-family="none" font-weight="none" font-size="none" text-anchor="none" style="mix-blend-mode: normal"><g transform="translate(0,-0.00015) scale(0.5,0.5)"><g><g><path d="M496.995,482h-16v-254.994c0,-6.457 -4.131,-12.188 -10.257,-14.23l-169.739,-56.58v-51.187c0,-6.253 -3.878,-11.85 -9.733,-14.045l-239.994,-89.998c-9.796,-3.673 -20.267,3.58 -20.267,14.045v466.99h-16c-8.284,0 -15,6.716 -15,15c0,8.284 6.716,15 15,15c3.369,0 475.49,0 481.99,0c8.284,0 15,-6.716 15,-15c0,-8.284 -6.716,-15.001 -15,-15.001zM151.002,482h-29.999v-59.999h29.999zM211.001,482h-29.999v-59.999h29.999zM271,167.007v314.993h-29.999v-74.998c0,-8.284 -6.716,-15 -15,-15h-119.998c-8.284,0 -15,6.716 -15,15v74.998h-29.999v-445.345l209.996,78.748zM390.997,482h-29.999v-59.999h29.999zM450.996,482h-29.999v-74.998c0,-8.284 -6.716,-15 -15,-15h-59.999c-8.284,0 -15,6.716 -15,15v74.998h-29.999v-294.182l149.997,49.999z"></path></g></g><g><g><path d="M136.003,332.003h-29.999c-8.284,0 -15,6.716 -15,15c0,8.284 6.715,15 15,15h29.999c8.284,0 15,-6.716 15,-15c0,-8.284 -6.716,-15 -15,-15z"></path></g></g><g><g><path d="M226.001,332.003h-29.999c-8.284,0 -15,6.716 -15,15c0,8.284 6.715,15 15,15h29.999c8.284,0 15,-6.716 15,-15c0,-8.284 -6.716,-15 -15,-15z"></path></g></g><g><g><path d="M136.003,272.005h-29.999c-8.284,0 -15,6.716 -15,15c0,8.284 6.715,15 15,15h29.999c8.284,0 15,-6.716 15,-15c0,-8.284 -6.716,-15 -15,-15z"></path></g></g><g><g><path d="M226.001,272.005h-29.999c-8.284,0 -15,6.716 -15,15c0,8.284 6.715,15 15,15h29.999c8.284,0 15,-6.716 15,-15c0,-8.284 -6.716,-15 -15,-15z"></path></g></g><g><g><path d="M405.997,332.003h-59.999c-8.284,0 -15,6.716 -15,15c0,8.284 6.715,15 15,15h59.999c8.284,0 15,-6.716 15,-15c0,-8.284 -6.716,-15 -15,-15z"></path></g></g><g><g><path d="M405.997,272.005h-59.999c-8.284,0 -15,6.716 -15,15c0,8.284 6.715,15 15,15h59.999c8.284,0 15,-6.716 15,-15c0,-8.284 -6.716,-15 -15,-15z"></path></g></g><g><g><path d="M136.003,212.006h-29.999c-8.284,0 -15,6.716 -15,15c0,8.284 6.715,15 15,15h29.999c8.284,0 15,-6.716 15,-15c-0.001,-8.284 -6.716,-15 -15,-15z"></path></g></g><g><g><path d="M226.001,212.006h-29.999c-8.284,0 -15,6.716 -15,15c0,8.284 6.715,15 15,15h29.999c8.284,0 15,-6.716 15,-15c0,-8.284 -6.716,-15 -15,-15z"></path></g></g><g><g><path d="M136.003,152.007h-29.999c-8.284,0 -15,6.716 -15,15c0,8.284 6.715,15 15,15h29.999c8.284,0 15,-6.716 15,-15c-0.001,-8.284 -6.716,-15 -15,-15z"></path></g></g><g><g><path d="M226.001,152.007h-29.999c-8.284,0 -15,6.716 -15,15c0,8.284 6.715,15 15,15h29.999c8.284,0 15,-6.716 15,-15c0,-8.284 -6.716,-15 -15,-15z"></path></g></g></g></g></svg>